<svg width="70" height="61" viewBox="0 0 70 61" fill="none" xmlns="http://www.w3.org/2000/svg">
<path d="M51.4983 22.5L37.6283 1.72667C37.0267 0.840001 36.0133 0.396667 35 0.396667C33.9867 0.396667 32.9733 0.840001 32.3717 1.75833L18.5017 22.5H3.33332C1.59166 22.5 0.166656 23.925 0.166656 25.6667C0.166656 25.9517 0.198323 26.2367 0.293323 26.5217L8.33666 55.8767C9.06499 58.5367 11.5033 60.5 14.4167 60.5H55.5833C58.4967 60.5 60.935 58.5367 61.695 55.8767L69.7383 26.5217L69.8333 25.6667C69.8333 23.925 68.4083 22.5 66.6667 22.5H51.4983ZM25.5 22.5L35 8.56667L44.5 22.5H25.5ZM35 47.8333C31.5167 47.8333 28.6667 44.9833 28.6667 41.5C28.6667 38.0167 31.5167 35.1667 35 35.1667C38.4833 35.1667 41.3333 38.0167 41.3333 41.5C41.3333 44.9833 38.4833 47.8333 35 47.8333Z" fill="white"/>
</svg>
