<svg width="48" height="48" viewBox="0 0 48 48" fill="none" xmlns="http://www.w3.org/2000/svg">
<path d="M38 6H10C7.79 6 6 7.79 6 10V38C6 40.21 7.79 42 10 42H38C40.21 42 42 40.21 42 38V10C42 7.79 40.21 6 38 6ZM35.814 31.368L32.344 31.416C32.344 31.416 31.596 31.562 30.616 30.886C29.318 29.994 28.094 27.674 27.14 27.976C26.172 28.284 26.202 30.372 26.202 30.372C26.202 30.372 26.21 30.74 25.988 30.98C25.748 31.238 25.278 31.212 25.278 31.212H23.724C23.724 31.212 20.296 31.496 17.274 28.346C13.982 24.912 11.074 18.134 11.074 18.134C11.074 18.134 10.904 17.706 11.086 17.488C11.292 17.246 11.848 17.24 11.848 17.24L15.562 17.222C15.562 17.222 15.912 17.284 16.164 17.468C16.37 17.62 16.488 17.906 16.488 17.906C16.488 17.906 17.088 19.428 17.884 20.806C19.436 23.492 20.158 24.08 20.684 23.792C21.452 23.372 21.222 19.996 21.222 19.996C21.222 19.996 21.236 18.77 20.836 18.224C20.524 17.798 19.938 17.672 19.68 17.64C19.47 17.612 19.812 17.126 20.258 16.906C20.926 16.58 22.108 16.56 23.502 16.574C24.588 16.586 24.902 16.652 25.326 16.756C26.608 17.066 26.172 18.262 26.172 21.132C26.172 22.052 26.006 23.344 26.668 23.77C26.954 23.954 27.65 23.798 29.388 20.838C30.214 19.434 30.832 17.784 30.832 17.784C30.832 17.784 30.968 17.49 31.178 17.364C31.394 17.234 31.684 17.274 31.684 17.274L35.594 17.25C35.594 17.25 36.768 17.108 36.96 17.642C37.16 18.2 36.522 19.502 34.924 21.632C32.302 25.132 32.01 24.806 34.188 26.83C36.268 28.764 36.698 29.704 36.77 29.822C37.63 31.254 35.814 31.368 35.814 31.368Z" fill="#0776A0"/>
</svg>
