<svg width="40" height="40" viewBox="0 0 40 40" fill="none" xmlns="http://www.w3.org/2000/svg">
<path d="M30.4107 26.4595C29.1039 25.1693 27.4724 25.1693 26.1739 26.4595C25.1834 27.4417 24.1929 28.4239 23.219 29.4228C22.9526 29.6974 22.7279 29.7557 22.4033 29.5726C21.7623 29.223 21.0798 28.94 20.4638 28.5571C17.5921 26.7508 15.1866 24.4285 13.0557 21.8148C11.9986 20.5163 11.058 19.1263 10.4004 17.5614C10.2672 17.2451 10.2922 17.037 10.5502 16.779C11.5408 15.8217 12.5063 14.8395 13.4802 13.8573C14.837 12.4922 14.837 10.894 13.4719 9.52063C12.6978 8.73819 11.9237 7.9724 11.1495 7.18997C10.3505 6.39089 9.5597 5.58348 8.7523 4.79272C7.44546 3.51919 5.81401 3.51919 4.5155 4.80105C3.51665 5.78325 2.55941 6.79043 1.54391 7.75598C0.603329 8.64663 0.128874 9.73704 0.0289886 11.0106C-0.129163 13.0832 0.378587 15.0393 1.09443 16.9454C2.55941 20.8909 4.79018 24.3952 7.49541 27.6082C11.1495 31.9532 15.5112 35.3909 20.6137 37.8714C22.911 38.9868 25.2916 39.8441 27.8803 39.9856C29.6616 40.0855 31.2098 39.636 32.4501 38.246C33.2991 37.297 34.2563 36.4314 35.1553 35.5241C36.4871 34.1756 36.4954 32.5442 35.1719 31.2124C33.5904 29.6225 32.0006 28.041 30.4107 26.4595Z" fill="white"/>
<path d="M28.8214 19.8279L31.8929 19.3035C31.4101 16.4818 30.0783 13.9264 28.0556 11.8954C25.9164 9.75618 23.2112 8.40773 20.2313 7.99154L19.7984 11.0797C22.1041 11.4043 24.2017 12.4448 25.8581 14.1012C27.423 15.6661 28.4468 17.6471 28.8214 19.8279Z" fill="white"/>
<path d="M33.624 6.47589C30.0781 2.92997 25.5916 0.690873 20.6389 0L20.2061 3.08812C24.4845 3.68743 28.3634 5.62687 31.4265 8.68169C34.3315 11.5867 36.2377 15.2575 36.9285 19.2945L40 18.7701C39.1926 14.0921 36.9868 9.84702 33.624 6.47589Z" fill="white"/>
</svg>
